# xmcd CD database file
#
# Track frame offsets:
#	150
#	20127
#	36792
#
# Disc length: 810 seconds
#
# Revision: 0
# Processed by: cddbd v1.5.1PL2 Copyright (c) Steve Scherf et al.
# Submitted via: CDex 1.40Beta9
#
DISCID=1f032803
DTITLE=the autumn stone - neil
DYEAR=1999
DGENRE=J-POP
TTITLE0=neil
TTITLE1=麗しのレイニー
TTITLE2=36
EXTD=YEAR: 1999
EXTT0=
EXTT1=
EXTT2=
PLAYORDER=
